<?xml version="1.0" encoding="UTF-8"?>
<svg id="Layer_1" data-name="Layer 1" xmlns="http://www.w3.org/2000/svg" viewBox="0 0 595.28 140.84">
  <defs>
    <style>
      .cls-1 {
        fill: #125057;
      }
    </style>
  </defs>
  <polygon class="cls-1" points="372.46 81.22 372.46 54.72 372.46 51.51 368.5 51.51 362.56 54.11 361.44 54.6 361.44 59.55 367.92 56.71 367.92 81.22 362.56 81.22 362.56 85.44 377.83 85.44 377.83 81.22 372.46 81.22"/>
  <path class="cls-1" d="m401.79,51.05c-6.23,0-13.51,2.85-13.51,10.87,0,7.51,6.76,10.87,13.46,10.87,2.66,0,6.28-.34,9.2-2.85v6c0,3.68-4.38,5.61-8.7,5.61-3.83,0-8.4-1.29-8.66-4.91l-.07-.96h-4.54l.09,1.12c.42,5.48,5.59,9.01,13.19,9.01,6.33,0,13.14-3.09,13.14-9.87v-13.93c0-8.09-7.33-10.96-13.6-10.96Zm-.05,17.43c-4.14,0-8.97-1.72-8.97-6.56,0-5.84,6.31-6.47,9.02-6.47,1.53,0,5.31.24,7.53,2.47,1.03,1.04,1.55,2.4,1.54,4.04-.04,4.79-5.47,6.53-9.11,6.53Z"/>
  <path class="cls-1" d="m442.6,51.05c-6.23,0-13.51,2.85-13.51,10.87,0,7.51,6.76,10.87,13.46,10.87,2.66,0,6.28-.34,9.2-2.85v6c0,3.68-4.38,5.61-8.7,5.61-3.83,0-8.4-1.29-8.66-4.91l-.07-.96h-4.54l.09,1.12c.42,5.48,5.59,9.01,13.19,9.01,6.33,0,13.14-3.09,13.14-9.87v-13.93c0-8.09-7.33-10.96-13.6-10.96Zm-.05,17.43c-4.14,0-8.98-1.72-8.98-6.56,0-5.84,6.31-6.47,9.02-6.47,1.53,0,5.31.24,7.53,2.47,1.03,1.04,1.55,2.4,1.54,4.04-.04,4.79-5.47,6.53-9.11,6.53Z"/>
  <path class="cls-1" d="m474.48,77.16c0-1.35,0-5.47,9.02-5.56,6.37,0,13.23-3.19,13.23-10.19-.05-7.61-6.92-10.31-13.33-10.31s-13.23,2.6-13.23,9.91v1.04h4.49v-1.04c0-5.29,6.7-5.7,8.75-5.7s8.97.44,8.97,6.11-8.06,5.88-8.97,5.88c-8.53,0-13.42,3.61-13.42,9.91v8.23h26.42v-4.44h-21.94v-3.83Z"/>
  <path class="cls-1" d="m129.19,51.52h4.7v33.9h-4.7v-22.9c0-1.21.05-2.03.1-2.81l-.1-.05c-.39.63-1.26,2.03-2.28,3.49l-9.83,14.82h-1.84l-9.78-14.77c-.77-1.21-1.79-2.66-2.28-3.29l-.1.05c.05.77.1,1.6.1,2.81v22.66h-4.65v-33.9h4.65l13.03,19.76,12.98-19.76Z"/>
  <path class="cls-1" d="m176.36,85.42l-3.39-7.46h-18.69l-3.34,7.46h-5.08l15.21-33.9h5.23l15.21,33.9h-5.13Zm-12.74-29.2c-.44,1.07-1.31,3.15-2.71,6.34l-4.75,11.14h14.92l-4.75-11.23c-1.45-3.34-2.28-5.18-2.62-6.25h-.1Z"/>
  <path class="cls-1" d="m198.15,81.06h18.26v4.36h-22.9v-33.9h4.65v29.54Z"/>
  <path class="cls-1" d="m228.66,85.42v-33.9h4.65v33.9h-4.65Z"/>
  <path class="cls-1" d="m258.68,67.89l17.43,17.53h-6.39l-12.83-12.93c-1.16-1.21-2.32-2.37-2.81-2.95l-.1.05c.05.77.05,1.6.05,2.81v13.03h-4.65v-33.9h4.65v12.15c0,1.21,0,2.03-.05,2.81l.1.05,3.1-3.34,11.23-11.67h6.15l-15.88,16.37Z"/>
  <path class="cls-1" d="m291.65,81.06h18.26v4.36h-22.9v-33.9h4.65v29.54Z"/>
  <path class="cls-1" d="m322.16,85.42v-33.9h4.65v33.9h-4.65Z"/>
</svg>